<?xml version="1.0" encoding="utf-8"?>
<svg version="1.1" id="zdic.net" xmlns="http://www.w3.org/2000/svg" xmlns:xlink="http://www.w3.org/1999/xlink" x="0px" y="0px"
	 viewBox="0 0 40 40" style="enable-background:new 0 0 40 40;" xml:space="preserve">
<style type="text/css">
	.st0{fill:#FFFFFF;stroke:#660000;stroke-miterlimit:10;}
	.st1{enable-background:new;}
	.st2{fill:#660000;}
</style>
<circle class="st0" cx="20" cy="20" r="18.5"/>
<g class="st1">
	<path class="st2" d="M20.49,17.37c0.37,0.28,0.42,0.45,0.14,0.49c-0.28,0.05-1.13,0.07-2.53,0.07c-0.19,1.13-0.54,1.85-1.05,2.18
		c-0.52,0.33-0.68-0.4-0.49-2.18c-3.75,0.75-5.91,1.38-6.47,1.9c-0.56,0.52-1.1,0.33-1.62-0.56c-0.52-0.89-0.59-1.41-0.21-1.55
		c0.37-0.14,0.8-0.82,1.27-2.04c-1.13,0.19-2.06,0.35-2.81,0.49c-0.75,0.14-1.48-0.05-2.18-0.56c-0.7-0.51-0.68-0.77,0.07-0.77
		c0.84,0,2.53-0.14,5.06-0.42c0.37-1.41,0.47-2.37,0.28-2.88c-0.19-0.51,0-0.77,0.56-0.77s1.5-0.12,2.81-0.35
		c1.31-0.23,2.23-0.47,2.74-0.7c0.51-0.23,1.05-0.26,1.62-0.07c0.56,0.19,1.1,0.42,1.62,0.7c0.51,0.28,0.61,0.61,0.28,0.98
		c-0.33,0.38-0.59,1.03-0.77,1.97c1.03-0.09,1.69-0.16,1.97-0.21c0.28-0.05,0.42,0.07,0.42,0.35s-0.84,0.52-2.53,0.7
		c-0.09,1.03-0.19,2.02-0.28,2.95C19.41,17,20.11,17.09,20.49,17.37z M16.55,7.1c1.03-0.28,1.9-0.37,2.6-0.28
		c0.7,0.09,0.94,0.33,0.7,0.7c-0.24,0.38-0.91,0.68-2.04,0.91c-1.13,0.24-2.16,0.38-3.09,0.42c-0.94,0.05-1.92,0.02-2.95-0.07
		c-1.13,1.03-2.06,1.76-2.81,2.18c-0.75,0.42-0.82,0.24-0.21-0.56c0.61-0.8,1.17-1.71,1.69-2.74c0.51-1.03,0.7-1.78,0.56-2.25
		c-0.14-0.47,0.07-0.63,0.63-0.49s1.1,0.33,1.62,0.56c0.51,0.24,0.63,0.49,0.35,0.77s-0.8,0.89-1.55,1.83
		C14.02,7.71,15.52,7.38,16.55,7.1z M13.31,30.1c0.19,0.52,0.14,1.22-0.14,2.11c-0.28,0.89-0.84,1.59-1.69,2.11
		c-0.84,0.51-1.34,0.35-1.48-0.49s0.12-1.45,0.77-1.83c0.65-0.37,1.17-0.89,1.55-1.55C12.8,29.7,13.13,29.58,13.31,30.1z
		 M10.5,18.07c2.72-0.37,4.78-0.65,6.19-0.84c0.09-0.75,0.19-1.69,0.28-2.81c-1.13,0.09-3.05,0.42-5.77,0.98
		C11.11,15.96,10.88,16.86,10.5,18.07z M17.04,11.18c-0.24-0.28-0.91-0.33-2.04-0.14c-1.13,0.19-2.2,0.42-3.23,0.7
		c-0.09,0.94-0.28,1.78-0.56,2.53c1.13-0.19,3.09-0.47,5.91-0.84C17.3,12.21,17.27,11.46,17.04,11.18z M20.35,22.99
		c1.59-1.13,2.39-1.92,2.39-2.39c0-0.47,0.21-0.63,0.63-0.49s0.94,0.4,1.55,0.77c0.61,0.38,0.63,0.66,0.07,0.84
		c-0.56,0.19-1.24,0.54-2.04,1.05c-0.8,0.52-2.84,1.9-6.12,4.15c2.72-0.28,5.25-0.65,7.59-1.13c-1.31-1.22-1.53-1.78-0.63-1.69
		c0.89,0.09,1.78,0.4,2.67,0.91c0.89,0.52,1.24,1.22,1.05,2.11c-0.19,0.89-0.98,0.73-2.39-0.49c-1.6,0.28-3.23,0.52-4.92,0.7
		c1.22,0.47,1.69,0.89,1.41,1.27c-0.28,0.38-0.42,1.13-0.42,2.25s0.02,2.04,0.07,2.74c0.05,0.7-0.26,1.48-0.91,2.32
		c-0.66,0.84-1.27,0.87-1.83,0.07c-0.56-0.8-1.24-1.53-2.04-2.18c-0.8-0.65-0.61-0.82,0.56-0.49c1.17,0.33,1.9,0.3,2.18-0.07
		s0.4-1.34,0.35-2.88c-0.05-1.55-0.17-2.46-0.35-2.74c-3,0.56-4.78,1.01-5.34,1.34c-0.56,0.33-1.13,0.14-1.69-0.56
		s-0.24-1.13,0.98-1.27c1.22-0.14,3.38-1.24,6.47-3.3c-2.81,0.38-4.52,0.68-5.13,0.91c-0.61,0.24-1.01,0.02-1.2-0.63
		c-0.19-0.65,0.02-1.05,0.63-1.2c0.61-0.14,1.43-0.58,2.46-1.34c1.03-0.75,1.66-1.36,1.9-1.83c0.23-0.47,0.58-0.56,1.05-0.28
		c0.47,0.28,0.82,0.56,1.05,0.84c0.23,0.28,0.14,0.47-0.28,0.56c-0.42,0.09-1.81,0.89-4.15,2.39
		C17.39,23.18,18.84,23.09,20.35,22.99z M13.67,11.67c0.89,0.33,1.31,0.7,1.27,1.13c-0.05,0.42-0.21,0.68-0.49,0.77
		c-0.28,0.09-0.7-0.28-1.27-1.13S12.77,11.35,13.67,11.67z M13.67,15.19c0.89,0.33,1.38,0.66,1.48,0.98
		c0.09,0.33-0.02,0.68-0.35,1.05c-0.33,0.38-0.82,0.05-1.48-0.98C12.66,15.21,12.77,14.86,13.67,15.19z M23.72,10.34
		c-0.66,0.94-1.34,1.64-2.04,2.11c-0.7,0.47-0.73,0.21-0.07-0.77c0.65-0.98,1.31-2.18,1.97-3.59c0.65-1.41,0.87-2.32,0.63-2.74
		c-0.24-0.42,0.05-0.58,0.84-0.49c0.79,0.09,1.43,0.31,1.9,0.63c0.47,0.33,0.49,0.61,0.07,0.84c-0.42,0.24-1.34,1.38-2.74,3.45
		C25.59,9.68,27,9.42,28.5,9c1.5-0.42,2.53-0.51,3.09-0.28c0.56,0.24,0.65,0.47,0.28,0.7c-0.38,0.24-1.69,0.59-3.94,1.05
		c0.65,0.38,0.84,0.8,0.56,1.27c-0.28,0.47-0.8,1.5-1.55,3.09c2.44,1.31,4.19,2.11,5.27,2.39c1.08,0.28,2.27,0.54,3.59,0.77
		c1.31,0.24,0.79,0.52-1.55,0.84c-2.34,0.33-3.73,0.28-4.15-0.14s-1.71-1.34-3.87-2.74c-0.66,0.56-1.53,1.13-2.6,1.69
		c-1.08,0.56-2.04,0.84-2.88,0.84s-1.01-0.12-0.49-0.35c0.51-0.23,1.22-0.56,2.11-0.98c0.89-0.42,1.66-1.15,2.32-2.18
		c-0.75-0.47-1.46-0.82-2.11-1.05c-0.66-0.23-1.03-0.4-1.13-0.49c-0.09-0.09,0.23-0.14,0.98-0.14c0.75,0,1.78,0.28,3.09,0.84
		c0.75-1.22,1.13-2.39,1.13-3.52C25.45,10.71,24.47,10.62,23.72,10.34z M29.84,32.77c-0.05,0.7-0.38,0.98-0.98,0.84
		c-0.61-0.14-1.24-0.61-1.9-1.41c-0.66-0.79-1.36-1.64-2.11-2.53c-0.75-0.89-0.33-1.05,1.27-0.49c1.59,0.56,2.62,1.13,3.09,1.69
		C29.67,31.43,29.88,32.06,29.84,32.77z"/>
</g>
</svg>
