<svg xmlns="http://www.w3.org/2000/svg" viewBox="0 0 100 100" width="100" height="100">
  <path d="M50 20 C30 20 15 35 15 50 C15 65 30 80 50 80 C70 80 85 65 85 50 C85 35 70 20 50 20 Z" fill="#FF6B6B"/>
  <path d="M50 30 C40 30 35 40 35 50 C35 60 40 70 50 70 C60 70 65 60 65 50 C65 40 60 30 50 30 Z" fill="#FF6B6B"/>
  <circle cx="35" cy="45" r="5" fill="#FF6B6B"/>
  <circle cx="65" cy="45" r="5" fill="#FF6B6B"/>
  <path d="M40 60 Q50 70 60 60" stroke="#FF6B6B" stroke-width="3" fill="none"/>
</svg>
