<?xml version="1.0" encoding="UTF-8"?>
<svg width="114px" height="114px" viewBox="0 0 114 114" version="1.1" xmlns="http://www.w3.org/2000/svg" xmlns:xlink="http://www.w3.org/1999/xlink">
    <title>018</title>
    <defs>
        <polygon id="path-1" points="50.5 88 50.5 50 41 50 41 55.446458 44.0625 55.446458 44.0625 88"></polygon>
    </defs>
    <g id="页面-1" stroke="none" stroke-width="1" fill="none" fill-rule="evenodd">
        <g id="画板备份" transform="translate(-1443.000000, -1044.000000)">
            <g id="018" transform="translate(1443.000000, 1044.000000)">
                <rect id="矩形" x="0" y="0" width="114" height="114"></rect>
                <path d="M56.7602398,12.7669206 C57.0086974,12.7055606 57.2805631,12.738984 57.516946,12.8817347 L57.516946,12.8817347 L107.767635,95.8701508 C107.910386,96.1065337 107.943809,96.3783993 107.882449,96.6268569 C107.821089,96.8753146 107.664946,97.1003641 107.428563,97.2431148 C107.272584,97.3373101 107.093832,97.3870968 106.911617,97.3870968 L106.911617,97.3870968 L7.08838316,97.3870968 C6.81224078,97.3870968 6.56224078,97.275168 6.38127637,97.0942036 C6.20031197,96.9132391 6.08838316,96.6632391 6.08838316,96.3870968 C6.08838316,96.2048818 6.13816984,96.0261301 6.23236512,95.8701508 L6.23236512,95.8701508 L56.143982,13.2208068 C56.2867326,12.9844239 56.5117822,12.8282806 56.7602398,12.7669206 Z" id="三角形" stroke="#F1B715" stroke-width="6"></path>
                <circle id="椭圆形" fill="#F0B000" cx="91" cy="88" r="3"></circle>
                <circle id="椭圆形备份" fill="#F0B000" cx="23" cy="88" r="3"></circle>
                <circle id="椭圆形备份-2" fill="#F0B000" cx="57" cy="31" r="3"></circle>
                <g id="1备份-11" fill-rule="nonzero" fill="#F0B000">
                    <use xlink:href="#path-1"></use>
                    <use xlink:href="#path-1"></use>
                </g>
                <path d="M64.4707379,88.59295 C67.6700594,88.59295 70.3914334,87.5960798 72.6348601,85.6023396 C74.8782867,83.6085994 76.0702969,80.9841863 76.0702969,77.7291002 C76.0702969,73.140832 74.0882103,69.7948279 70.264631,68.3300392 C73.3859203,66.7024961 74.9465649,63.9763615 74.9465649,60.1516354 C74.9465649,57.0186151 73.9516539,54.4755791 71.9618321,52.5225274 C69.9720102,50.5694758 67.4944869,49.59295 64.5292621,49.59295 C61.5640373,49.59295 59.086514,50.5694758 57.0966921,52.5225274 C55.1068702,54.4755791 54.1119593,57.0186151 54.1119593,60.1516354 C54.1119593,63.935673 55.6530958,66.6618075 58.735369,68.3300392 C54.9117897,69.876205 53,73.0092254 53,77.7291002 C53,80.9434977 54.1119593,83.5577387 56.3358779,85.5718232 C58.5597964,87.5859077 61.2714165,88.59295 64.4707379,88.59295 Z M64.5585242,65.8856692 C63.134436,65.8856692 61.9346904,65.3567177 60.9592875,64.2988148 C59.9838846,63.2409118 59.4961832,61.8778445 59.4961832,60.2096129 C59.4961832,58.2565612 59.9741306,56.7409118 60.9300254,55.6626645 C61.8859203,54.5844173 63.1051739,54.0452936 64.5877863,54.0452936 C66.0703986,54.0452936 67.2701442,54.6251058 68.1870229,55.7847303 C69.1039016,56.9443547 69.562341,58.4193155 69.562341,60.2096129 C69.562341,61.9999102 69.0843936,63.393494 68.1284987,64.3903641 C67.1726039,65.3872342 65.9826124,65.8856692 64.5585242,65.8856692 Z M64.6463104,83.9953052 C63.0076336,83.9953052 61.6615776,83.4053208 60.6081425,82.2253521 C59.5547074,81.0453834 59.0279898,79.4178404 59.0279898,77.342723 C59.0279898,75.6744914 59.5839695,74.2402191 60.6959288,73.0399061 C61.807888,71.8395931 63.0856658,71.2394366 64.5292621,71.2394366 C66.1289228,71.2394366 67.4359627,71.829421 68.4503817,73.0093897 C69.4648007,74.1893584 69.9720102,75.6338028 69.9720102,77.342723 C69.9720102,79.2957746 69.4940628,80.8928013 68.5381679,82.1338028 C67.5822731,83.3748044 66.2849873,83.9953052 64.6463104,83.9953052 Z" id="8" fill="#F0B000"></path>
            </g>
        </g>
    </g>
</svg>