<?xml version="1.0" encoding="UTF-8"?>
<svg width="114px" height="114px" viewBox="0 0 114 114" version="1.1" xmlns="http://www.w3.org/2000/svg" xmlns:xlink="http://www.w3.org/1999/xlink">
    <title>020</title>
    <defs>
        <path d="M55.4500148,85 L55.4500148,80.2398758 L44.9682408,80.2398758 L49.8887929,74.0496115 C53.3487143,69.3886195 55.6333564,65.6927941 55.6333564,62.2334986 C55.6333564,58.7742031 54.8124859,56.6083467 52.9675574,54.8048071 C51.1226289,53.0012675 48.3398563,51.8869776 45.3561962,51.8869776 C42.0490066,51.8869776 39.8870425,53.0329053 37.9638399,55.0987159 C36.0406373,57.1645265 35.079036,59.7865169 35.079036,62.964687 L40.254902,62.964687 C40.254902,61.1990369 40.6952614,59.6982343 41.5759804,58.4622793 C42.4566993,57.2263242 43.6699346,56.6083467 45.2156863,56.6083467 C46.7614379,56.6083467 48.1626755,57.0403917 49.1152899,58.1350947 C50.0679043,59.2297978 50.3921569,60.5987159 50.3921569,62.011236 C50.3921569,63.4947855 49.9877451,64.4213483 49.2867647,65.6396469 C48.5857843,66.8579454 45.658852,70.771106 41.7675131,75.7960319 L34.3031253,85 L55.4500148,85 Z" id="path-1"></path>
        <path d="M68.5,85 C72.0777778,85 74.8888889,83.3904538 76.9333333,80.1713615 C78.9777778,76.9522692 80,73.0704225 80,68.5258216 C80,63.9467919 78.9777778,60.0477308 76.9333333,56.8286385 C74.8888889,53.6095462 72.08659,52 68.5264368,52 C64.9662835,52 62.1551724,53.5837246 60.0931034,56.7511737 C58.0310345,59.9186228 57,63.8435055 57,68.5258216 C57,73.0359937 58.0222222,76.9092332 60.0666667,80.1455399 C62.1111111,83.3818466 64.9222222,85 68.5,85 Z M68.5793103,80.5070423 C66.640613,80.5070423 65.1072797,79.2934272 63.9793103,76.8661972 C62.851341,74.4389671 62.2873563,71.6416275 62.2873563,68.4741784 C62.2873563,65.4788732 62.851341,62.7331768 63.9793103,60.2370892 C65.1072797,57.7410016 66.6141762,56.4929577 68.5,56.4929577 C70.3858238,56.4929577 71.8927203,57.6893584 73.0206897,60.0821596 C74.148659,62.4749609 74.7126437,65.2723005 74.7126437,68.4741784 C74.7126437,71.9514867 74.1750958,74.8262911 73.1,77.0985915 C72.0249042,79.370892 70.5180077,80.5070423 68.5793103,80.5070423 Z" id="path-2"></path>
    </defs>
    <g id="页面-1" stroke="none" stroke-width="1" fill="none" fill-rule="evenodd">
        <g id="画板备份" transform="translate(-304.000000, -1173.000000)">
            <g id="020" transform="translate(304.000000, 1173.000000)">
                <rect id="矩形" x="0" y="0" width="114" height="114"></rect>
                <path d="M56.7602398,12.7669206 C57.0086974,12.7055606 57.2805631,12.738984 57.516946,12.8817347 L57.516946,12.8817347 L107.767635,95.8701508 C107.910386,96.1065337 107.943809,96.3783993 107.882449,96.6268569 C107.821089,96.8753146 107.664946,97.1003641 107.428563,97.2431148 C107.272584,97.3373101 107.093832,97.3870968 106.911617,97.3870968 L106.911617,97.3870968 L7.08838316,97.3870968 C6.81224078,97.3870968 6.56224078,97.275168 6.38127637,97.0942036 C6.20031197,96.9132391 6.08838316,96.6632391 6.08838316,96.3870968 C6.08838316,96.2048818 6.13816984,96.0261301 6.23236512,95.8701508 L6.23236512,95.8701508 L56.143982,13.2208068 C56.2867326,12.9844239 56.5117822,12.8282806 56.7602398,12.7669206 Z" id="三角形" stroke="#F67200" stroke-width="6"></path>
                <circle id="椭圆形" fill="#F67200" cx="91" cy="88" r="3"></circle>
                <circle id="椭圆形备份" fill="#F67200" cx="23" cy="88" r="3"></circle>
                <circle id="椭圆形备份-2" fill="#F67200" cx="57" cy="31" r="3"></circle>
                <g id="2备份-2" fill-rule="nonzero" fill="#F67200">
                    <use xlink:href="#path-1"></use>
                    <use xlink:href="#path-1"></use>
                </g>
                <g id="0备份" fill-rule="nonzero" fill="#F67200">
                    <use xlink:href="#path-2"></use>
                    <use xlink:href="#path-2"></use>
                </g>
            </g>
        </g>
    </g>
</svg>